<?xml version="1.0" encoding="iso-8859-1"?>
<!-- Generator: Adobe Illustrator 19.1.0, SVG Export Plug-In . SVG Version: 6.00 Build 0)  -->
<svg version="1.1" id="Capa_1" xmlns="http://www.w3.org/2000/svg" xmlns:xlink="http://www.w3.org/1999/xlink" x="0px" y="0px"
	 viewBox="0 0 66.5 66.5" style="enable-background:new 0 0 66.5 66.5;" xml:space="preserve">
<g>
	<g id="group-47svg">
		<path id="path-1_41_" style="fill:#EDC951;" d="M66.5,35.5c0,16.568-13.431,30-30,30c-16.568,0-30-13.432-30-30
			c0-16.569,13.432-30,30-30C53.069,5.5,66.5,18.931,66.5,35.5z"/>
		<path id="path-2_38_" style="fill:#FFFFFF;" d="M38.676,42.331l-10.768-6.255l10.576-6.256c1.169-0.446,1.811,0.418,1.811,1.669
			v9.173C40.295,41.914,39.846,42.777,38.676,42.331z"/>
		<path id="path-3_20_" d="M34.517,40.95c-0.368,0-0.747-0.073-1.125-0.217c-0.073-0.029-0.145-0.062-0.213-0.101l-10.894-6.255
			c-0.464-0.267-0.751-0.761-0.752-1.297c-0.001-0.536,0.283-1.031,0.746-1.301l10.763-6.256c0.071-0.041,0.145-0.077,0.221-0.106
			c0.378-0.143,0.76-0.216,1.135-0.216c1.651,0,2.897,1.413,2.897,3.288v9.172C37.295,39.598,36.153,40.95,34.517,40.95z
			 M26.031,33.068l8.257,4.742c0.005-0.044,0.007-0.094,0.007-0.149v-9.172c0-0.086-0.009-0.157-0.019-0.214L26.031,33.068z"/>
		<path id="path-4_15_" d="M31.5,64C14.131,64,0,49.869,0,32.5S14.131,1,31.5,1S63,15.131,63,32.5S48.869,64,31.5,64z M31.5,4
			C15.785,4,3,16.785,3,32.5S15.785,61,31.5,61S60,48.215,60,32.5S47.215,4,31.5,4z"/>
	</g>
</g>
<g>
</g>
<g>
</g>
<g>
</g>
<g>
</g>
<g>
</g>
<g>
</g>
<g>
</g>
<g>
</g>
<g>
</g>
<g>
</g>
<g>
</g>
<g>
</g>
<g>
</g>
<g>
</g>
<g>
</g>
</svg>
