<?xml version="1.0" encoding="iso-8859-1"?>
<!-- Generator: Adobe Illustrator 19.1.0, SVG Export Plug-In . SVG Version: 6.00 Build 0)  -->
<svg version="1.1" id="Capa_1" xmlns="http://www.w3.org/2000/svg" xmlns:xlink="http://www.w3.org/1999/xlink" x="0px" y="0px"
	 viewBox="0 0 66.5 66.5" style="enable-background:new 0 0 66.5 66.5;" xml:space="preserve">
<g>
	<g id="group-46svg">
		<path id="path-1_40_" style="fill:#EDC951;" d="M66.5,35.5c0,16.568-13.431,30-30,30c-16.568,0-30-13.432-30-30
			c0-16.569,13.432-30,30-30C53.069,5.5,66.5,18.931,66.5,35.5z"/>
		<path id="path-2_37_" style="fill:#FFFFFF;" d="M35.282,29.833l11.268,6.255l-11.325,6.256c-1.17,0.446-2.562-0.418-2.562-1.67
			v-9.172C32.663,30.251,34.112,29.387,35.282,29.833z"/>
		<path id="path-3_19_" d="M28.903,40.963c-1.787,0-3.24-1.476-3.24-3.289v-9.172c0-1.813,1.452-3.289,3.236-3.289
			c0.397,0,0.789,0.073,1.167,0.217c0.069,0.026,0.136,0.058,0.201,0.095L41.41,31.78c0.472,0.265,0.765,0.766,0.765,1.308
			s-0.292,1.042-0.765,1.308l-11.138,6.255c-0.064,0.037-0.131,0.068-0.2,0.094C29.693,40.89,29.3,40.963,28.903,40.963z
			 M28.899,28.213c-0.091,0-0.236,0.079-0.236,0.289v9.172c0,0.222,0.154,0.31,0.275,0.286l8.674-4.872l-8.678-4.872
			C28.922,28.214,28.91,28.213,28.899,28.213z"/>
		<path id="path-4_14_" d="M31.5,64C14.131,64,0,49.869,0,32.5S14.131,1,31.5,1S63,15.131,63,32.5S48.869,64,31.5,64z M31.5,4
			C15.785,4,3,16.785,3,32.5S15.785,61,31.5,61S60,48.215,60,32.5S47.215,4,31.5,4z"/>
	</g>
</g>
<g>
</g>
<g>
</g>
<g>
</g>
<g>
</g>
<g>
</g>
<g>
</g>
<g>
</g>
<g>
</g>
<g>
</g>
<g>
</g>
<g>
</g>
<g>
</g>
<g>
</g>
<g>
</g>
<g>
</g>
</svg>
